<mxfile host="app.diagrams.net" agent="Mozilla/5.0 (Macintosh; Intel Mac OS X 10_15_7) AppleWebKit/537.36 (KHTML, like Gecko) Chrome/134.0.0.0 Safari/537.36" version="26.1.3">
  <diagram name="Page-1" id="hzJ_59KVR99nFLsGmfMX">
    <mxGraphModel dx="1900" dy="641" grid="1" gridSize="10" guides="1" tooltips="1" connect="1" arrows="1" fold="1" page="1" pageScale="1" pageWidth="850" pageHeight="1100" math="0" shadow="0">
      <root>
        <mxCell id="0" />
        <mxCell id="1" parent="0" />
        <mxCell id="wYFMXES_aJNbngL9hCIE-1" value="Admin&lt;div&gt;page&lt;/div&gt;" style="whiteSpace=wrap;html=1;aspect=fixed;" parent="1" vertex="1">
          <mxGeometry x="340" y="370" width="80" height="80" as="geometry" />
        </mxCell>
        <mxCell id="KyeeAG4AAdfrqYYFwvps-1" value="" style="endArrow=classic;html=1;rounded=0;exitX=0;exitY=1;exitDx=0;exitDy=0;entryX=1;entryY=0;entryDx=0;entryDy=0;" parent="1" source="wYFMXES_aJNbngL9hCIE-1" target="KyeeAG4AAdfrqYYFwvps-3" edge="1">
          <mxGeometry width="50" height="50" relative="1" as="geometry">
            <mxPoint x="380" y="360" as="sourcePoint" />
            <mxPoint x="210" y="320" as="targetPoint" />
          </mxGeometry>
        </mxCell>
        <mxCell id="KyeeAG4AAdfrqYYFwvps-2" value="" style="endArrow=classic;html=1;rounded=0;exitX=1;exitY=1;exitDx=0;exitDy=0;entryX=0;entryY=0;entryDx=0;entryDy=0;" parent="1" source="wYFMXES_aJNbngL9hCIE-1" target="KyeeAG4AAdfrqYYFwvps-4" edge="1">
          <mxGeometry width="50" height="50" relative="1" as="geometry">
            <mxPoint x="380" y="360" as="sourcePoint" />
            <mxPoint x="540" y="320" as="targetPoint" />
          </mxGeometry>
        </mxCell>
        <mxCell id="KyeeAG4AAdfrqYYFwvps-3" value="employee&lt;div&gt;page&lt;/div&gt;&lt;div&gt;layout&lt;/div&gt;" style="whiteSpace=wrap;html=1;aspect=fixed;" parent="1" vertex="1">
          <mxGeometry x="150" y="430" width="80" height="80" as="geometry" />
        </mxCell>
        <mxCell id="KyeeAG4AAdfrqYYFwvps-4" value="tasks/page&lt;div&gt;Search&lt;/div&gt;&lt;div&gt;EdittaskForm(conditional)&lt;/div&gt;&lt;div&gt;Admintaskform&lt;/div&gt;" style="whiteSpace=wrap;html=1;aspect=fixed;verticalAlign=top;align=left;" parent="1" vertex="1">
          <mxGeometry x="520" y="420" width="140" height="140" as="geometry" />
        </mxCell>
        <mxCell id="iXD2K77V01XflE1XxDsA-1" value="" style="edgeStyle=orthogonalEdgeStyle;rounded=0;orthogonalLoop=1;jettySize=auto;html=1;" parent="1" source="KyeeAG4AAdfrqYYFwvps-6" target="wYFMXES_aJNbngL9hCIE-1" edge="1">
          <mxGeometry relative="1" as="geometry" />
        </mxCell>
        <mxCell id="KyeeAG4AAdfrqYYFwvps-6" value="&lt;span style=&quot;background-color: light-dark(#ffffff, var(--ge-dark-color, #121212));&quot;&gt;Components:&lt;/span&gt;&lt;div&gt;&lt;br&gt;&lt;div&gt;Form -&amp;gt;depend on (title)&lt;/div&gt;&lt;/div&gt;&lt;div&gt;Nav-&amp;gt;&lt;/div&gt;&lt;div&gt;Search -&amp;gt; update url with params (iquery), list searched employes, listen handleClick -&amp;gt; update url with id&amp;nbsp;&lt;/div&gt;&lt;div&gt;Employeees -&amp;gt; render list of employee after serch and delete heppening from here&lt;/div&gt;&lt;div&gt;AdminTaskForm -&amp;gt;&amp;nbsp; i can add and delete tasks virtually with usestate and submit all together to insert DB&lt;/div&gt;&lt;div&gt;TaskComponent -&amp;gt; one task shape after search Delete happening from here&lt;/div&gt;&lt;div&gt;EditFormForTask - &amp;gt; ediit task with formdata and task id wich is given from page&lt;/div&gt;&lt;div&gt;&lt;br&gt;&lt;/div&gt;" style="rounded=0;whiteSpace=wrap;html=1;align=left;verticalAlign=top;" parent="1" vertex="1">
          <mxGeometry x="270" y="40" width="220" height="290" as="geometry" />
        </mxCell>
        <mxCell id="KyeeAG4AAdfrqYYFwvps-7" value="add/page&lt;div&gt;Form&lt;/div&gt;" style="whiteSpace=wrap;html=1;aspect=fixed;" parent="1" vertex="1">
          <mxGeometry x="-50" y="570" width="80" height="80" as="geometry" />
        </mxCell>
        <mxCell id="KyeeAG4AAdfrqYYFwvps-9" value="edit/page&lt;div&gt;Search&lt;br&gt;&lt;div&gt;Form&lt;/div&gt;&lt;div&gt;&lt;br&gt;&lt;/div&gt;&lt;div&gt;functions:&lt;/div&gt;&lt;div&gt;get searchparams wichs are added to url from Search component, pass result to search as prop for render lis of searched employees.&lt;/div&gt;&lt;div&gt;pass props to Form for update in future&lt;/div&gt;&lt;/div&gt;" style="whiteSpace=wrap;html=1;aspect=fixed;verticalAlign=top;align=left;" parent="1" vertex="1">
          <mxGeometry x="120" y="620" width="200" height="200" as="geometry" />
        </mxCell>
        <mxCell id="KyeeAG4AAdfrqYYFwvps-11" value="" style="endArrow=classic;html=1;rounded=0;exitX=0.5;exitY=1;exitDx=0;exitDy=0;entryX=0.5;entryY=0;entryDx=0;entryDy=0;" parent="1" source="KyeeAG4AAdfrqYYFwvps-3" target="KyeeAG4AAdfrqYYFwvps-9" edge="1">
          <mxGeometry width="50" height="50" relative="1" as="geometry">
            <mxPoint x="320" y="500" as="sourcePoint" />
            <mxPoint x="370" y="450" as="targetPoint" />
          </mxGeometry>
        </mxCell>
        <mxCell id="KyeeAG4AAdfrqYYFwvps-12" value="" style="endArrow=classic;html=1;rounded=0;exitX=0;exitY=1;exitDx=0;exitDy=0;entryX=1;entryY=0;entryDx=0;entryDy=0;" parent="1" source="KyeeAG4AAdfrqYYFwvps-3" target="KyeeAG4AAdfrqYYFwvps-7" edge="1">
          <mxGeometry width="50" height="50" relative="1" as="geometry">
            <mxPoint x="320" y="500" as="sourcePoint" />
            <mxPoint x="370" y="450" as="targetPoint" />
          </mxGeometry>
        </mxCell>
        <mxCell id="KyeeAG4AAdfrqYYFwvps-14" value="Db/prisma" style="shape=cylinder3;whiteSpace=wrap;html=1;boundedLbl=1;backgroundOutline=1;size=15;" parent="1" vertex="1">
          <mxGeometry x="600" y="40" width="80" height="120" as="geometry" />
        </mxCell>
        <mxCell id="KyeeAG4AAdfrqYYFwvps-15" value="employee table&lt;div&gt;task table&lt;br&gt;&lt;div&gt;&lt;br&gt;&lt;/div&gt;&lt;div&gt;&lt;br&gt;&lt;/div&gt;&lt;/div&gt;" style="whiteSpace=wrap;html=1;aspect=fixed;verticalAlign=top;" parent="1" vertex="1">
          <mxGeometry x="720" y="80" width="130" height="130" as="geometry" />
        </mxCell>
        <mxCell id="KyeeAG4AAdfrqYYFwvps-17" value="" style="endArrow=classic;startArrow=classic;html=1;rounded=0;entryX=1.013;entryY=0.617;entryDx=0;entryDy=0;entryPerimeter=0;exitX=-0.012;exitY=0.613;exitDx=0;exitDy=0;exitPerimeter=0;" parent="1" source="KyeeAG4AAdfrqYYFwvps-15" target="KyeeAG4AAdfrqYYFwvps-14" edge="1">
          <mxGeometry width="50" height="50" relative="1" as="geometry">
            <mxPoint x="320" y="380" as="sourcePoint" />
            <mxPoint x="370" y="330" as="targetPoint" />
            <Array as="points" />
          </mxGeometry>
        </mxCell>
        <mxCell id="J-cySg9SvwEDNT0kXpcs-7" value="actions&lt;div&gt;&lt;br&gt;&lt;/div&gt;&lt;div&gt;createEmployee&lt;/div&gt;&lt;div&gt;searchEmployee&lt;/div&gt;&lt;div&gt;getemployeebyId&lt;/div&gt;&lt;div&gt;updateemployee&lt;/div&gt;&lt;div&gt;deleteEmployee&lt;/div&gt;" style="rounded=0;whiteSpace=wrap;html=1;verticalAlign=top;align=left;" parent="1" vertex="1">
          <mxGeometry x="-40" y="40" width="200" height="160" as="geometry" />
        </mxCell>
        <mxCell id="V80NBvgEfO97bi1LC36t-1" value="Employee/&lt;div&gt;page&lt;/div&gt;&lt;div&gt;Search,&lt;/div&gt;&lt;div&gt;SearchedEmployeList&lt;/div&gt;&lt;div&gt;employee&lt;/div&gt;" style="whiteSpace=wrap;html=1;aspect=fixed;verticalAlign=top;align=left;" vertex="1" parent="1">
          <mxGeometry x="610" y="630" width="130" height="130" as="geometry" />
        </mxCell>
        <mxCell id="V80NBvgEfO97bi1LC36t-4" value="" style="curved=1;endArrow=classic;html=1;rounded=0;entryX=1;entryY=0;entryDx=0;entryDy=0;exitX=1;exitY=1;exitDx=0;exitDy=0;" edge="1" parent="1" source="KyeeAG4AAdfrqYYFwvps-6" target="V80NBvgEfO97bi1LC36t-1">
          <mxGeometry width="50" height="50" relative="1" as="geometry">
            <mxPoint x="790" y="480" as="sourcePoint" />
            <mxPoint x="490" y="330" as="targetPoint" />
            <Array as="points">
              <mxPoint x="650" y="330" />
              <mxPoint x="690" y="290" />
              <mxPoint x="760" y="400" />
            </Array>
          </mxGeometry>
        </mxCell>
        <mxCell id="V80NBvgEfO97bi1LC36t-5" value="" style="endArrow=classic;html=1;rounded=0;exitX=0;exitY=1;exitDx=0;exitDy=0;" edge="1" parent="1" source="V80NBvgEfO97bi1LC36t-1" target="V80NBvgEfO97bi1LC36t-6">
          <mxGeometry width="50" height="50" relative="1" as="geometry">
            <mxPoint x="310" y="640" as="sourcePoint" />
            <mxPoint x="540" y="800" as="targetPoint" />
          </mxGeometry>
        </mxCell>
        <mxCell id="V80NBvgEfO97bi1LC36t-6" value="[id]/page&lt;div&gt;here is a portal for search employee for clock in out and so on&lt;/div&gt;" style="whiteSpace=wrap;html=1;aspect=fixed;verticalAlign=top;align=left;" vertex="1" parent="1">
          <mxGeometry x="440" y="810" width="160" height="160" as="geometry" />
        </mxCell>
      </root>
    </mxGraphModel>
  </diagram>
</mxfile>
